<?xml version="1.0"?>
<svg xmlns="http://www.w3.org/2000/svg" xmlns:xlink="http://www.w3.org/1999/xlink" version="1.1" id="Capa_1" x="0px" y="0px" viewBox="0 0 512 512" style="enable-background:new 0 0 512 512;" xml:space="preserve" width="512px" height="512px" class=""><g><g>
	<g>
		<path d="M489.277,352.938c-14.633-17.974-35.191-30.459-57.887-35.158l-70.131-14.52c-7.57-1.567-13.064-8.315-13.064-16.048    c0-5.522-4.477-9.999-9.999-9.999c-5.523,0-9.999,4.478-9.999,9.999c0,5.629,1.319,11.019,3.675,15.851h-85.023    c2.352-4.828,3.669-10.213,3.669-15.836c0-5.522-4.477-9.999-9.999-9.999c-5.523,0-9.999,4.478-9.999,9.999    c0,7.442-5.099,13.96-12.232,15.836H99.778c-15.298,0-27.743,12.445-27.743,27.743v171.179c0,5.522,4.477,9.999,9.999,9.999    H501.97c5.523,0,9.999-4.478,9.999-9.999V416.75C511.969,393.574,503.91,370.911,489.277,352.938z M355.939,491.985H139.992    v-45.996c0-5.522-4.477-9.999-9.999-9.999s-9.999,4.478-9.999,9.999v45.997H92.033v-161.18c0-4.271,3.475-7.745,7.745-7.745    h248.417c4.271,0,7.745,3.475,7.745,7.745V491.985z M491.97,491.986H375.938v-161.18c0-1.41-0.107-2.795-0.311-4.15l51.71,10.706    c37.451,7.756,64.633,41.142,64.633,79.387V491.986z" data-original="#000000" class="active-path" data-old_color="#ffffff" fill="#ffffff"/>
	</g>
</g><g>
	<g>
		<path d="M371.298,123.286c-0.664-25.393-12.917-47.939-31.668-62.54c1.947-1.825,3.17-4.412,3.17-7.29    c0-29.468-23.974-53.441-53.441-53.441c-29.468,0-53.442,23.974-53.442,53.441c0,2.878,1.223,5.465,3.17,7.29    c-18.751,14.601-31.004,37.146-31.668,62.54c-0.036,0.343-0.055,0.692-0.055,1.044v76.467v4.365    c-0.002,45.212,36.781,81.995,81.994,81.995c45.212,0,81.995-36.783,81.995-81.995v-4.365v-75.345v-1.122    C371.353,123.977,371.333,123.629,371.298,123.286z M289.357,20.014c17.462,0,31.832,13.455,33.309,30.541    c-10.186-4.548-21.452-7.099-33.309-7.099c-11.856,0-23.123,2.55-33.309,7.099C257.524,33.469,271.895,20.014,289.357,20.014z     M227.36,200.796v-22.126c0-2.564,2.086-4.651,4.651-4.651h42.696c2.564,0,4.65,2.087,4.65,4.651v22.126    c0,2.564-2.086,4.65-4.65,4.65h-42.696C229.447,205.446,227.36,203.36,227.36,200.796z M289.356,267.158    c-27.093,0-50.168-17.477-58.581-41.743c0.409,0.02,0.821,0.031,1.236,0.031h42.696c5.483,0,10.551-1.801,14.649-4.84    c4.099,3.039,9.167,4.84,14.65,4.84h42.696c0.414,0,0.826-0.011,1.235-0.031C339.524,249.681,316.45,267.158,289.356,267.158z     M351.353,200.796c0,2.564-2.086,4.65-4.65,4.65h-42.696c-2.564,0-4.651-2.086-4.651-4.65v-22.126    c0-2.564,2.086-4.651,4.651-4.651h42.696c2.564,0,4.65,2.087,4.65,4.651V200.796z M351.354,131.158    c0,12.607-10.256,22.864-22.864,22.864h-21.842c7.684-7.99,13.4-17.996,16.248-29.349c1.344-5.356-1.91-10.787-7.267-12.131    c-5.36-1.344-10.788,1.91-12.132,7.267c-5.053,20.145-23.088,34.214-43.856,34.214h-2.156h-7.262    c-12.607,0-22.864-10.256-22.864-22.864v-5.706c0-34.185,27.812-61.996,61.997-61.996s61.996,27.811,61.996,61.996V131.158z" data-original="#000000" class="active-path" data-old_color="#ffffff" fill="#ffffff"/>
	</g>
</g><g>
	<g>
		<path d="M223.986,372.682c-19.211,0-34.841,15.63-34.841,34.842c0,19.211,15.63,34.841,34.841,34.841    c19.211,0,34.841-15.63,34.841-34.841C258.827,388.312,243.197,372.682,223.986,372.682z M223.986,422.366    c-8.185,0-14.842-6.658-14.842-14.842s6.659-14.843,14.842-14.843c8.183,0,14.842,6.659,14.842,14.843    S232.171,422.366,223.986,422.366z" data-original="#000000" class="active-path" data-old_color="#ffffff" fill="#ffffff"/>
	</g>
</g><g>
	<g>
		<path d="M137.992,132.24c5.523,0,9.999-4.478,9.999-9.999V95.067c0-11.027-8.971-19.999-19.999-19.999H19.999    C8.971,75.068,0,84.039,0,95.067v135.992c0,11.027,8.971,19.999,19.999,19.999h107.993c11.027,0,19.999-8.97,19.999-19.999    v-22.057c0-5.522-4.477-9.999-9.999-9.999s-9.999,4.478-9.999,9.999v22.057H19.999V95.067h107.993v27.173    C127.992,127.762,132.469,132.24,137.992,132.24z" data-original="#000000" class="active-path" data-old_color="#ffffff" fill="#ffffff"/>
	</g>
</g><g>
	<g>
		<path d="M145.061,155.996c-1.86-1.87-4.44-2.931-7.07-2.931s-5.21,1.061-7.07,2.931c-1.86,1.859-2.93,4.439-2.93,7.069    s1.07,5.21,2.93,7.07s4.44,2.93,7.07,2.93s5.21-1.069,7.07-2.93s2.93-4.44,2.93-7.07S146.921,157.855,145.061,155.996z" data-original="#000000" class="active-path" data-old_color="#ffffff" fill="#ffffff"/>
	</g>
</g><g>
	<g>
		<path d="M489.86,0.016h-31.715c-12.208,0-22.141,9.932-22.141,22.141v170.602c0,1.408,0.297,2.8,0.873,4.085l27.998,62.562    c1.61,3.599,5.185,5.915,9.126,5.915s7.517-2.316,9.126-5.915l27.998-62.562c0.575-1.285,0.873-2.677,0.873-4.085V22.155    C512,9.947,502.069,0.016,489.86,0.016z M474.002,230.841l-12.568-28.084h25.136L474.002,230.841z M492.001,182.758h-35.998    V74.011h35.998V182.758z M492.002,54.012h-35.998V22.155c-0.001-1.18,0.96-2.141,2.141-2.141h31.715    c1.181,0,2.142,0.961,2.142,2.142V54.012z" data-original="#000000" class="active-path" data-old_color="#ffffff" fill="#ffffff"/>
	</g>
</g><g>
	<g>
		<path d="M137.062,400.451c-1.86-1.861-4.44-2.93-7.07-2.93s-5.21,1.069-7.07,2.93c-1.86,1.859-2.93,4.439-2.93,7.07    c0,2.64,1.07,5.21,2.93,7.069c1.86,1.87,4.44,2.931,7.07,2.931s5.21-1.061,7.07-2.931c1.86-1.859,2.93-4.439,2.93-7.069    C139.992,404.89,138.922,402.31,137.062,400.451z" data-original="#000000" class="active-path" data-old_color="#ffffff" fill="#ffffff"/>
	</g>
</g></g> </svg>
