<svg width="12" height="12" viewBox="0 0 12 12" fill="none" xmlns="http://www.w3.org/2000/svg">
                                <path d="M11.4545 6.54546C11.2909 6.54546 11.1818 6.65456 11.1818 6.81818V10.3636C11.1818 10.5273 11.0727 10.6364 10.9091 10.6364H1.09089C0.927251 10.6364 0.818173 10.5273 0.818173 10.3636V6.81818C0.818173 6.65454 0.709072 6.54546 0.545454 6.54546C0.381837 6.54546 0.272736 6.65456 0.272736 6.81818V10.3636C0.272736 10.8273 0.627275 11.1818 1.09092 11.1818H10.9091C11.3727 11.1818 11.7273 10.8273 11.7273 10.3636V6.81818C11.7273 6.65454 11.6182 6.54546 11.4545 6.54546Z" fill="#848484"/>
                                <path d="M11.1818 2.72728H0.81818C0.354539 2.72728 0 3.08182 0 3.54546V5.29092C0 5.67272 0.272719 6 0.627281 6.08182L4.9091 7.03636V7.90908C4.9091 8.07272 5.0182 8.18179 5.18182 8.18179H6.81818C6.98182 8.18179 7.0909 8.07269 7.0909 7.90908V7.03636L11.3727 6.08182C11.7273 6 12 5.67272 12 5.2909V3.54544C12 3.08182 11.6455 2.72728 11.1818 2.72728ZM6.54546 7.63636H5.45456V6.54546H6.54546V7.63636ZM11.4545 5.2909C11.4545 5.42726 11.3727 5.53636 11.2364 5.56362L7.0909 6.4909V6.27272C7.0909 6.10908 6.9818 6 6.81818 6H5.18182C5.01818 6 4.9091 6.1091 4.9091 6.27272V6.4909L0.763641 5.56364C0.627281 5.53636 0.545461 5.42728 0.545461 5.29092V3.54546C0.545461 3.38182 0.654563 3.27274 0.81818 3.27274H11.1818C11.3455 3.27274 11.4545 3.38184 11.4545 3.54546V5.2909Z" fill="#848484"/>
                                <path d="M7.36364 0.818176H4.63636C4.17272 0.818176 3.81818 1.17272 3.81818 1.63636V1.90907C3.81818 2.07272 3.92728 2.18179 4.0909 2.18179C4.25451 2.18179 4.36361 2.07269 4.36361 1.90907V1.63636C4.36361 1.47272 4.47272 1.36364 4.63633 1.36364H7.36361C7.52725 1.36364 7.63633 1.47274 7.63633 1.63636V1.90907C7.63633 2.07272 7.74543 2.18179 7.90905 2.18179C8.07269 2.18179 8.18177 2.07269 8.18177 1.90907V1.63636C8.18182 1.17272 7.82728 0.818176 7.36364 0.818176Z" fill="#848484"/>
                                </svg>