<svg width="12" height="12" viewBox="0 0 12 12" fill="none" xmlns="http://www.w3.org/2000/svg">
                                <path d="M6 0C2.6916 0 0 2.6916 0 6C0 9.3084 2.6916 12 6 12C9.3084 12 12 9.3084 12 6C12 2.6916 9.3084 0 6 0ZM6 11.6C2.9122 11.6 0.4 9.0878 0.4 6C0.4 2.9122 2.9122 0.4 6 0.4C9.0878 0.4 11.6 2.9122 11.6 6C11.6 9.0878 9.0878 11.6 6 11.6Z" fill="#848484"/>
                                <path d="M6.00001 1.2C5.88961 1.2 5.80001 1.2894 5.80001 1.4V6H2.80001C2.68961 6 2.60001 6.0894 2.60001 6.2C2.60001 6.3106 2.68961 6.4 2.80001 6.4H6.00001C6.11041 6.4 6.20001 6.3106 6.20001 6.2V1.4C6.20001 1.2894 6.11041 1.2 6.00001 1.2Z" fill="#848484"/>
                                </svg>