<svg width="15" height="15" viewBox="0 0 15 15" fill="none" xmlns="http://www.w3.org/2000/svg">
<g clip-path="url(#clip0)">
<path d="M7.44562 8.08242C7.46115 8.08242 7.47669 8.08242 7.49532 8.08242C7.50154 8.08242 7.50775 8.08242 7.51396 8.08242C7.52328 8.08242 7.5357 8.08242 7.54502 8.08242C8.45515 8.06689 9.19133 7.74695 9.73492 7.13502C10.9308 5.78691 10.732 3.47588 10.7103 3.25533C10.6326 1.59971 9.84985 0.807621 9.20375 0.437979C8.72228 0.161524 8.16006 0.0124249 7.5326 0H7.51085C7.50775 0 7.50153 0 7.49843 0H7.47979C7.135 0 6.45784 0.0559122 5.80864 0.425554C5.15633 0.795196 4.36113 1.58729 4.28348 3.25533C4.26173 3.47588 4.06293 5.78691 5.25883 7.13502C5.79932 7.74695 6.5355 8.06689 7.44562 8.08242ZM5.11284 3.33299C5.11284 3.32367 5.11595 3.31435 5.11595 3.30814C5.21845 1.08097 6.79953 0.841789 7.47669 0.841789H7.48911C7.49532 0.841789 7.50464 0.841789 7.51396 0.841789C8.35264 0.860427 9.7784 1.20211 9.8747 3.30814C9.8747 3.31746 9.8747 3.32678 9.8778 3.33299C9.88091 3.35473 10.0983 5.46697 9.11056 6.579C8.71918 7.02009 8.19733 7.23752 7.51085 7.24374C7.50464 7.24374 7.50154 7.24374 7.49532 7.24374C7.48911 7.24374 7.486 7.24374 7.47979 7.24374C6.79642 7.23752 6.27147 7.02009 5.88319 6.579C4.89851 5.47318 5.10974 3.35163 5.11284 3.33299Z" fill="#494949"/>
<path d="M13.8787 11.9155C13.8787 11.9124 13.8787 11.9093 13.8787 11.9062C13.8787 11.8813 13.8756 11.8565 13.8756 11.8285C13.8569 11.2135 13.8165 9.77532 12.4684 9.3156C12.4591 9.31249 12.4467 9.30939 12.4374 9.30628C11.0365 8.94907 9.87162 8.14144 9.85919 8.13213C9.66971 7.99856 9.40879 8.04515 9.27522 8.23463C9.14165 8.42411 9.18825 8.68503 9.37773 8.8186C9.43053 8.85588 10.6668 9.7163 12.2137 10.1139C12.9375 10.3717 13.0182 11.1452 13.04 11.8534C13.04 11.8813 13.04 11.9062 13.0431 11.931C13.0462 12.2106 13.0275 12.6424 12.9778 12.8909C12.4746 13.1766 10.5022 14.1644 7.50156 14.1644C4.51337 14.1644 2.52848 13.1735 2.02217 12.8878C1.97247 12.6393 1.95072 12.2075 1.95694 11.9279C1.95694 11.9031 1.96004 11.8782 1.96004 11.8503C1.98179 11.1421 2.06255 10.3686 2.7863 10.1108C4.3332 9.7132 5.56948 8.84967 5.62229 8.8155C5.81177 8.68193 5.85836 8.42101 5.7248 8.23153C5.59123 8.04205 5.33031 7.99545 5.14082 8.12902C5.1284 8.13834 3.96977 8.94596 2.56265 9.30318C2.55023 9.30628 2.54091 9.30939 2.53159 9.31249C1.18348 9.77532 1.1431 11.2135 1.12447 11.8254C1.12447 11.8534 1.12447 11.8782 1.12136 11.9031C1.12136 11.9062 1.12136 11.9093 1.12136 11.9124C1.11825 12.0739 1.11515 12.9033 1.27978 13.3195C1.31084 13.4003 1.36675 13.4686 1.4413 13.5152C1.53449 13.5774 3.76787 15 7.50467 15C11.2415 15 13.4748 13.5742 13.568 13.5152C13.6395 13.4686 13.6985 13.4003 13.7296 13.3195C13.8849 12.9064 13.8818 12.077 13.8787 11.9155Z" fill="#494949"/>
</g>
<defs>
<clipPath id="clip0">
<rect width="15" height="15" fill="white"/>
</clipPath>
</defs>
</svg>
